<svg xmlns="http://www.w3.org/2000/svg" height="24" viewBox="0 -960 960 960" width="24"
    fill="#FFFFFF">
    <path
        d="M575.307-384.616q-26.615-54.23-87.393-71.73-60.777-17.5-125.606-17.5-64.462 0-126.193 17.5-61.73 17.5-86.807 71.73h425.999ZM97.692-344.615q0-87.462 82.538-128.347 82.539-40.885 182.078-40.885 99.538 0 182.077 40.885 82.538 40.885 82.538 128.347H97.692Zm0 132.307v-40h529.231v40H97.692ZM706.923-80v-40h56l56-544.615H458.461l-5.384-40.001h184.615v-160h40.001v160h184.615l-59.846 588.155q-2.231 16.538-14.308 26.5Q776.077-80 759.539-80h-52.616Zm0-40h56-56ZM122.307-80q-10.461 0-17.538-7.077t-7.077-17.538V-120h529.231v15.385q0 10.461-7.077 17.538T602.308-80H122.307Zm240.001-304.616Z" />
</svg>