<svg width="472" height="188" viewBox="0 0 472 188" fill="none" xmlns="http://www.w3.org/2000/svg">
    <path
        d="M22.0479 52.09C22.2679 51.9433 26.3012 51.87 34.1479 51.87C41.9212 51.87 45.9179 51.9433 46.1379 52.09C46.3579 52.2367 46.5412 52.42 46.6879 52.64C46.8345 52.9333 48.0812 62.9433 50.4279 82.67L54.0579 112.37L72.6479 82.67C84.7479 62.9433 90.9812 52.8967 91.3479 52.53L92.0079 52.09H92.1179C92.4112 51.9433 96.3712 51.87 103.998 51.87C111.625 51.87 115.548 51.9433 115.768 52.09C115.915 52.1633 116.061 52.3467 116.208 52.64C116.281 53.0067 116.135 53.85 115.768 55.17C115.401 56.5633 115.145 57.4067 114.998 57.7L114.668 58.03H110.818C107.151 58.1033 105.025 58.2867 104.438 58.58C104.071 58.7267 103.851 58.9467 103.778 59.24C103.338 60.34 100.735 70.4233 95.9679 89.49C90.9079 109.73 88.3412 119.887 88.2679 119.96C88.1945 120.18 88.5245 120.363 89.2579 120.51C90.0645 120.657 91.8245 120.767 94.5379 120.84C96.8112 120.84 98.0945 120.913 98.3879 121.06C98.8279 121.207 99.0479 121.537 99.0479 122.05L97.9479 126.34C97.6545 126.78 96.8845 126.963 95.6379 126.89C95.2712 126.89 94.5012 126.89 93.3279 126.89C87.4612 126.597 80.0179 126.56 70.9979 126.78C70.1179 126.853 69.4212 126.89 68.9079 126.89C66.4145 126.963 65.0212 126.78 64.7279 126.34C64.5812 126.12 64.6545 125.277 64.9479 123.81C65.3145 122.197 65.6812 121.28 66.0479 121.06C66.4145 120.913 67.7345 120.84 70.0079 120.84C74.1145 120.767 76.4245 120.473 76.9379 119.96C77.1579 119.813 79.7979 109.62 84.8579 89.38L92.3379 59.24L71.6579 92.46C57.9445 114.68 50.9779 125.9 50.7579 126.12C50.4645 126.413 50.2079 126.597 49.9879 126.67C49.6212 126.89 48.8512 127 47.6779 127C46.1379 127 45.2945 126.743 45.1479 126.23C45.0745 126.01 43.7179 115.01 41.0779 93.23C38.3645 71.3767 37.0079 60.4133 37.0079 60.34L23.6979 113.58C23.0379 116.147 22.7079 117.503 22.7079 117.65C22.7079 119.557 25.0912 120.62 29.8579 120.84C31.0312 120.84 31.7645 120.913 32.0579 121.06C32.4979 121.207 32.7179 121.537 32.7179 122.05L31.6179 126.34C31.3245 126.78 30.5912 126.963 29.4179 126.89C29.1245 126.89 28.5012 126.89 27.5479 126.89C22.5612 126.597 16.3645 126.56 8.95785 126.78C8.22452 126.853 7.63785 126.89 7.19785 126.89C5.07119 126.963 3.86119 126.78 3.56785 126.34C3.42119 126.12 3.49452 125.277 3.78785 123.81C4.15452 122.27 4.48452 121.353 4.77785 121.06C4.99785 120.913 5.51119 120.84 6.31785 120.84C9.47119 120.84 12.1112 120.363 14.2379 119.41C15.6312 118.603 16.4379 117.833 16.6579 117.1L31.2879 58.8C31.2879 58.7267 31.2145 58.6167 31.0679 58.47C30.7745 58.3233 28.7945 58.1767 25.1279 58.03H21.3879L20.9479 57.59C20.6545 57.2967 20.6912 56.4167 21.0579 54.95C21.4979 53.19 21.8279 52.2367 22.0479 52.09ZM135.978 78.49C136.051 78.4167 136.711 78.38 137.958 78.38C139.278 78.5267 140.194 78.6367 140.708 78.71C143.128 79.4433 145.108 80.69 146.648 82.45L147.198 83.22L147.968 82.45C149.948 80.6167 152.001 80.1033 154.128 80.91C155.228 81.2767 155.961 81.9733 156.328 83C156.621 83.88 156.438 85.7133 155.778 88.5C155.338 90.4067 154.311 94.55 152.698 100.93C150.131 110.977 148.774 116.513 148.628 117.54C148.334 119.153 148.371 120.473 148.738 121.5C149.178 122.673 150.021 123.187 151.268 123.04C152.148 122.967 153.064 122.27 154.018 120.95C155.044 119.41 156.108 116.55 157.208 112.37C157.501 111.123 157.831 110.427 158.198 110.28C158.418 110.207 159.114 110.17 160.288 110.17C161.681 110.17 162.451 110.243 162.598 110.39C163.038 110.683 163.038 111.527 162.598 112.92C160.691 119.74 158.234 124.25 155.228 126.45C154.054 127.33 152.881 127.88 151.708 128.1C150.168 128.32 148.518 128.21 146.758 127.77C143.458 127.037 141.111 125.313 139.718 122.6L139.388 121.83L138.728 122.38C132.934 127.367 127.214 129.127 121.568 127.66C119.954 127.22 118.451 126.56 117.058 125.68C112.878 122.747 110.494 118.383 109.908 112.59C109.614 110.61 109.651 108.483 110.018 106.21C110.971 100.05 113.501 94.4033 117.608 89.27C119.001 87.5833 120.541 86.0433 122.228 84.65C126.408 81.2033 130.624 79.1867 134.878 78.6C135.171 78.5267 135.538 78.49 135.978 78.49ZM139.168 83.88C137.701 83.5133 136.491 83.44 135.538 83.66C133.264 84.1 131.064 85.3833 128.938 87.51C126.811 89.7833 124.941 93.8167 123.328 99.61C122.961 100.93 122.558 102.47 122.118 104.23C120.871 109.217 120.248 112.92 120.248 115.34C120.248 117.613 120.724 119.41 121.678 120.73C123.071 122.563 125.014 123.297 127.508 122.93C130.294 122.637 133.154 121.023 136.088 118.09C137.408 116.77 138.398 115.56 139.058 114.46C139.058 114.68 140.048 110.83 142.028 102.91L144.778 91.58L144.668 90.81C143.714 87.1433 141.881 84.8333 139.168 83.88ZM188.59 58.25C189.69 57.9567 190.717 58.03 191.67 58.47C192.77 58.8367 193.504 59.5333 193.87 60.56C194.164 61.44 193.944 63.2733 193.21 66.06C192.99 67.0133 192.587 68.6633 192 71.01C190.68 76.51 189.984 79.2967 189.91 79.37C189.91 79.5167 191.67 79.59 195.19 79.59H200.47L200.8 79.92C201.24 80.2133 201.24 81.1667 200.8 82.78C200.58 83.88 200.36 84.65 200.14 85.09C199.92 85.4567 199.187 85.6767 197.94 85.75C197.354 85.75 195.997 85.75 193.87 85.75H188.37L188.26 86.19C188.26 86.41 186.977 91.5067 184.41 101.48C182.064 110.867 180.78 116.22 180.56 117.54C180.267 119.153 180.304 120.473 180.67 121.5C181.184 122.747 182.394 123.223 184.3 122.93C187.454 122.27 190.277 120.033 192.77 116.22C194.017 114.313 194.824 112.773 195.19 111.6C195.557 110.793 195.96 110.353 196.4 110.28C196.694 110.207 197.317 110.17 198.27 110.17C199.664 110.17 200.47 110.243 200.69 110.39C201.13 110.83 201.02 111.71 200.36 113.03C198.527 116.99 196.254 120.29 193.54 122.93C192 124.47 190.46 125.607 188.92 126.34C187.747 127 186.464 127.513 185.07 127.88C184.41 128.027 183.384 128.1 181.99 128.1C180.597 128.1 179.497 127.99 178.69 127.77C176.05 127.11 173.997 125.863 172.53 124.03C171.577 122.71 170.99 121.353 170.77 119.96C170.624 119.373 170.55 118.53 170.55 117.43L170.66 115.89L174.4 100.93C176.894 91.1033 178.14 86.08 178.14 85.86C178.14 85.7867 176.38 85.75 172.86 85.75C169.194 85.75 167.214 85.4933 166.92 84.98C166.774 84.76 166.847 83.9533 167.14 82.56C167.58 81.0933 167.837 80.3233 167.91 80.25C168.13 79.8833 168.864 79.6633 170.11 79.59C170.697 79.59 172.054 79.59 174.18 79.59H179.79L181.88 70.9C183.42 64.6667 184.447 61.2567 184.96 60.67C185.107 60.5233 185.327 60.3033 185.62 60.01C186.427 59.2033 187.417 58.6167 188.59 58.25ZM240.107 52.2L240.437 51.87H242.417C252.17 52.2367 261.63 52.2733 270.797 51.98C272.777 51.9067 273.877 52.09 274.097 52.53C274.243 52.75 274.17 53.5933 273.877 55.06C273.437 56.82 273.033 57.7733 272.667 57.92C272.373 57.9933 271.713 58.03 270.687 58.03C268.047 58.03 266.323 58.14 265.517 58.36C265.077 58.4333 264.82 58.6167 264.747 58.91C264.38 59.6433 262.033 68.6267 257.707 85.86C253.307 103.46 250.96 112.663 250.667 113.47C249.053 117.797 245.9 121.537 241.207 124.69C239.08 126.083 236.953 127.147 234.827 127.88C227.933 130.227 221.883 130.08 216.677 127.44C214.037 126.12 212.13 124.287 210.957 121.94C210.297 120.693 209.967 119.19 209.967 117.43C209.967 115.523 210.187 114.057 210.627 113.03C211.213 111.783 211.91 110.757 212.717 109.95C214.843 107.823 217.3 106.98 220.087 107.42C222.287 107.86 223.753 109.033 224.487 110.94C224.633 111.307 224.707 111.93 224.707 112.81C224.707 114.57 224.23 116.183 223.277 117.65C221.957 119.483 220.38 120.657 218.547 121.17L218.107 121.39L219.867 122.71C221.553 123.663 223.607 124.14 226.027 124.14C227.64 124.14 229.07 123.847 230.317 123.26C233.983 121.573 236.733 118.603 238.567 114.35C238.86 113.69 239.117 112.993 239.337 112.26C239.337 112.187 241.647 103.093 246.267 84.98C250.593 67.5267 252.72 58.7633 252.647 58.69C252.133 58.3233 249.383 58.1033 244.397 58.03C240.95 58.03 239.08 57.7733 238.787 57.26C238.713 57.04 238.823 56.1967 239.117 54.73C239.483 53.3367 239.813 52.4933 240.107 52.2ZM294.962 78.49C295.035 78.4167 295.695 78.38 296.942 78.38C298.262 78.5267 299.179 78.6367 299.692 78.71C302.112 79.4433 304.092 80.69 305.632 82.45L306.182 83.22L306.952 82.45C308.932 80.6167 310.985 80.1033 313.112 80.91C314.212 81.2767 314.945 81.9733 315.312 83C315.605 83.88 315.422 85.7133 314.762 88.5C314.322 90.4067 313.295 94.55 311.682 100.93C309.115 110.977 307.759 116.513 307.612 117.54C307.319 119.153 307.355 120.473 307.722 121.5C308.162 122.673 309.005 123.187 310.252 123.04C311.132 122.967 312.049 122.27 313.002 120.95C314.029 119.41 315.092 116.55 316.192 112.37C316.485 111.123 316.815 110.427 317.182 110.28C317.402 110.207 318.099 110.17 319.272 110.17C320.665 110.17 321.435 110.243 321.582 110.39C322.022 110.683 322.022 111.527 321.582 112.92C319.675 119.74 317.219 124.25 314.212 126.45C313.039 127.33 311.865 127.88 310.692 128.1C309.152 128.32 307.502 128.21 305.742 127.77C302.442 127.037 300.095 125.313 298.702 122.6L298.372 121.83L297.712 122.38C291.919 127.367 286.199 129.127 280.552 127.66C278.939 127.22 277.435 126.56 276.042 125.68C271.862 122.747 269.479 118.383 268.892 112.59C268.599 110.61 268.635 108.483 269.002 106.21C269.955 100.05 272.485 94.4033 276.592 89.27C277.985 87.5833 279.525 86.0433 281.212 84.65C285.392 81.2033 289.609 79.1867 293.862 78.6C294.155 78.5267 294.522 78.49 294.962 78.49ZM298.152 83.88C296.685 83.5133 295.475 83.44 294.522 83.66C292.249 84.1 290.049 85.3833 287.922 87.51C285.795 89.7833 283.925 93.8167 282.312 99.61C281.945 100.93 281.542 102.47 281.102 104.23C279.855 109.217 279.232 112.92 279.232 115.34C279.232 117.613 279.709 119.41 280.662 120.73C282.055 122.563 283.999 123.297 286.492 122.93C289.279 122.637 292.139 121.023 295.072 118.09C296.392 116.77 297.382 115.56 298.042 114.46C298.042 114.68 299.032 110.83 301.012 102.91L303.762 91.58L303.652 90.81C302.699 87.1433 300.865 84.8333 298.152 83.88ZM343.615 51.32C349.628 50.88 352.561 50.66 352.415 50.66C353.075 50.66 353.515 50.9167 353.735 51.43C353.808 51.7233 351.168 62.65 345.815 84.21L337.565 117.43C337.491 117.723 337.455 118.347 337.455 119.3C337.455 121.207 337.895 122.38 338.775 122.82C340.681 123.627 342.331 122.49 343.725 119.41C344.311 118.31 345.045 116.11 345.925 112.81C346.365 111.27 346.731 110.427 347.025 110.28C347.171 110.207 347.868 110.17 349.115 110.17C350.508 110.17 351.315 110.243 351.535 110.39C351.681 110.537 351.755 110.83 351.755 111.27C351.755 112.223 351.205 114.203 350.105 117.21C348.931 119.997 347.941 122.013 347.135 123.26C345.448 125.68 343.505 127.22 341.305 127.88C340.791 128.027 339.985 128.1 338.885 128.1C337.125 128.1 335.658 127.88 334.485 127.44C330.818 126.12 328.581 123.663 327.775 120.07C327.481 118.383 327.481 116.953 327.775 115.78C327.775 115.853 330.048 106.577 334.595 87.95C339.288 69.1767 341.488 59.4967 341.195 58.91C340.681 58.3967 339.105 58.1033 336.465 58.03H334.155L333.715 57.59C333.421 57.2967 333.458 56.3433 333.825 54.73C334.265 53.0433 334.631 52.1267 334.925 51.98C334.998 51.98 337.895 51.76 343.615 51.32ZM414.878 48.35L417.408 48.24H417.518C419.498 48.24 420.562 48.46 420.708 48.9C420.782 49.1933 421.772 61.0733 423.678 84.54C425.512 108.153 426.502 120.033 426.648 120.18C426.722 120.253 426.978 120.363 427.418 120.51C428.298 120.73 430.425 120.84 433.798 120.84H435.998L436.438 121.17C436.658 121.537 436.768 121.793 436.768 121.94L435.778 126.34C435.558 126.78 434.752 126.963 433.358 126.89C433.065 126.89 432.515 126.89 431.708 126.89C421.075 126.597 412.385 126.633 405.638 127H404.318L403.988 126.67C403.695 126.377 403.548 126.083 403.548 125.79C403.548 124.617 403.915 123.187 404.648 121.5C404.795 121.06 405.858 120.84 407.838 120.84C409.598 120.693 410.772 120.62 411.358 120.62C413.045 120.327 413.962 120.033 414.108 119.74C414.182 119.667 414.035 117.247 413.668 112.48C413.302 108.227 413.118 105.807 413.118 105.22C413.118 105.073 408.938 105 400.578 105H387.928L384.628 110.83C382.282 114.79 381.072 116.953 380.998 117.32C380.705 118.053 380.815 118.677 381.328 119.19C382.062 120.07 383.638 120.62 386.058 120.84C387.085 120.84 387.745 121.097 388.038 121.61L388.148 121.94L387.598 124.14C387.305 125.533 387.012 126.377 386.718 126.67L386.388 127H385.068C378.982 126.707 373.225 126.633 367.798 126.78C364.058 126.927 362.152 127 362.078 127H361.308L360.978 126.67C360.685 126.377 360.538 126.12 360.538 125.9L361.528 121.5C361.822 121.06 362.665 120.84 364.058 120.84C369.192 120.62 372.748 119.153 374.728 116.44L394.638 82.34C407.398 60.2667 413.925 49.0833 414.218 48.79C414.292 48.7167 414.512 48.57 414.878 48.35ZM411.358 83C410.552 72.5133 410.148 67.1967 410.148 67.05C410.148 66.7567 408.535 69.4333 405.308 75.08L396.068 91.03L391.558 98.73L402.008 98.84H412.568C412.568 98.9133 412.165 93.6333 411.358 83ZM458.878 51.32C464.892 50.88 467.825 50.66 467.678 50.66C468.338 50.66 468.778 50.9167 468.998 51.43C469.072 51.7233 466.432 62.65 461.078 84.21L452.828 117.43C452.755 117.723 452.718 118.347 452.718 119.3C452.718 121.207 453.158 122.38 454.038 122.82C455.945 123.627 457.595 122.49 458.988 119.41C459.575 118.31 460.308 116.11 461.188 112.81C461.628 111.27 461.995 110.427 462.288 110.28C462.435 110.207 463.132 110.17 464.378 110.17C465.772 110.17 466.578 110.243 466.798 110.39C466.945 110.537 467.018 110.83 467.018 111.27C467.018 112.223 466.468 114.203 465.368 117.21C464.195 119.997 463.205 122.013 462.398 123.26C460.712 125.68 458.768 127.22 456.568 127.88C456.055 128.027 455.248 128.1 454.148 128.1C452.388 128.1 450.922 127.88 449.748 127.44C446.082 126.12 443.845 123.663 443.038 120.07C442.745 118.383 442.745 116.953 443.038 115.78C443.038 115.853 445.312 106.577 449.858 87.95C454.552 69.1767 456.752 59.4967 456.458 58.91C455.945 58.3967 454.368 58.1033 451.728 58.03H449.418L448.978 57.59C448.685 57.2967 448.722 56.3433 449.088 54.73C449.528 53.0433 449.895 52.1267 450.188 51.98C450.262 51.98 453.158 51.76 458.878 51.32Z"
        fill="black" />
    <path d="M0.0478516 140.75H471.968V146.25H0.0478516V140.75Z" fill="black" />
    <path
        d="M407.471 163.832H417.239V173.456H407.471V163.832ZM415.271 165.44H409.415V171.848H415.271V165.44ZM421.415 162.176H423.407V176.576H421.415V162.176ZM422.855 168.104H426.623V169.736H422.855V168.104ZM415.871 175.544H417.575V176.216C417.575 180.272 413.783 182.984 409.415 183.8L408.623 182.216C412.511 181.592 415.871 179.288 415.871 176.216V175.544ZM416.135 175.544H417.839V176.216C417.839 179.288 421.223 181.592 425.063 182.216L424.295 183.8C419.927 182.984 416.135 180.272 416.135 176.216V175.544ZM433.965 163.856H435.597V165.584C435.597 169.328 433.125 172.376 429.429 173.552L428.445 171.968C431.733 170.984 433.965 168.44 433.965 165.584V163.856ZM434.325 163.856H435.957V165.584C435.957 168.152 438.117 170.504 441.309 171.416L440.373 173C436.749 171.896 434.325 169.016 434.325 165.584V163.856ZM429.117 163.376H440.733V165.008H429.117V163.376ZM443.493 162.176H445.485V173.336H443.493V162.176ZM444.621 166.88H448.677V168.536H444.621V166.88ZM431.709 174.368H445.485V179.624H433.725V182.96H431.757V178.16H443.541V175.928H431.709V174.368ZM431.757 182.12H446.277V183.656H431.757V182.12ZM465.571 162.176H467.563V173.216H465.571V162.176ZM466.699 166.832H470.755V168.488H466.699V166.832ZM453.787 174.248H467.563V179.576H455.803V182.816H453.835V178.064H465.619V175.832H453.787V174.248ZM453.835 181.976H468.355V183.584H453.835V181.976ZM456.715 162.944C459.979 162.944 462.331 164.936 462.331 167.768C462.331 170.624 459.979 172.616 456.715 172.616C453.499 172.616 451.123 170.624 451.123 167.768C451.123 164.936 453.499 162.944 456.715 162.944ZM456.715 164.576C454.627 164.576 453.067 165.896 453.067 167.768C453.067 169.664 454.627 170.984 456.715 170.984C458.851 170.984 460.411 169.664 460.411 167.768C460.411 165.896 458.851 164.576 456.715 164.576Z"
        fill="black" />
    <path
        d="M11.0623 2.656C15.7423 2.656 18.6943 4.192 18.6943 6.76C18.6943 9.328 15.7423 10.84 11.0623 10.84C6.35831 10.84 3.43031 9.328 3.43031 6.76C3.43031 4.192 6.35831 2.656 11.0623 2.656ZM11.0623 4.24C7.60631 4.24 5.47031 5.152 5.47031 6.76C5.47031 8.344 7.60631 9.28 11.0623 9.28C14.4943 9.28 16.6543 8.344 16.6543 6.76C16.6543 5.152 14.4943 4.24 11.0623 4.24ZM3.64631 16.432H18.4543V23.584H3.64631V16.432ZM16.5103 18.04H5.61431V21.976H16.5103V18.04ZM1.24631 12.712H20.8543V14.32H1.24631V12.712ZM28.9884 3.208H30.6444V5.32C30.6444 9.424 28.1964 12.952 24.5244 14.344L23.5164 12.76C26.8044 11.56 28.9884 8.56 28.9884 5.32V3.208ZM29.3484 3.208H30.9804V5.32C30.9804 8.44 33.2124 11.248 36.4284 12.376L35.4204 13.936C31.7964 12.616 29.3484 9.304 29.3484 5.32V3.208ZM26.6364 16.336H41.1324V23.872H39.1164V17.968H26.6364V16.336ZM39.1164 2.176H41.1324V15.232H39.1164V2.176ZM52.6219 19.432H72.2779V21.088H52.6219V19.432ZM61.4539 14.176H63.4219V19.984H61.4539V14.176ZM61.4059 4.912H63.0859V6.256C63.0859 10.696 58.6459 14.056 54.3739 14.944L53.5579 13.36C57.3019 12.736 61.4059 9.688 61.4059 6.256V4.912ZM61.7659 4.912H63.4459V6.256C63.4459 9.688 67.5739 12.664 71.3659 13.288L70.5739 14.872C66.2299 14.008 61.7659 10.696 61.7659 6.256V4.912ZM54.2299 4.144H70.6219V5.776H54.2299V4.144ZM89.532 2.176H91.524V14.776H89.532V2.176ZM90.66 7.696H94.74V9.376H90.66V7.696ZM77.892 15.736H79.836V18.04H89.556V15.736H91.524V23.584H77.892V15.736ZM79.836 19.576V21.976H89.556V19.576H79.836ZM74.748 4.384H87.564V6.016H74.748V4.384ZM81.156 7C84.252 7 86.34 8.512 86.34 10.816C86.34 13.12 84.252 14.632 81.156 14.632C78.036 14.632 75.948 13.12 75.948 10.816C75.948 8.512 78.036 7 81.156 7ZM81.156 8.512C79.164 8.512 77.844 9.424 77.844 10.816C77.844 12.208 79.164 13.12 81.156 13.12C83.1 13.12 84.444 12.208 84.444 10.816C84.444 9.424 83.1 8.512 81.156 8.512ZM80.148 1.96H82.14V5.272H80.148V1.96ZM112.781 15.976H114.749V23.896H112.781V15.976ZM103.973 15.28H123.581V16.936H103.973V15.28ZM112.757 5.896H114.509V6.448C114.509 10.192 110.453 12.952 105.893 13.648L105.197 12.064C109.109 11.536 112.757 9.16 112.757 6.448V5.896ZM113.021 5.896H114.749V6.448C114.749 9.136 118.421 11.536 122.309 12.064L121.589 13.648C117.053 12.976 113.021 10.144 113.021 6.448V5.896ZM105.869 4.84H121.685V6.472H105.869V4.84ZM112.781 2.176H114.749V5.416H112.781V2.176ZM131.452 6.256H133.084V7.336C133.084 11.248 130.708 14.464 127.084 15.736L126.1 14.176C129.316 13.072 131.452 10.384 131.452 7.336V6.256ZM131.788 6.256H133.444V7.336C133.444 10.216 135.652 12.76 138.868 13.768L137.884 15.352C134.26 14.152 131.788 11.08 131.788 7.336V6.256ZM126.652 5.08H138.22V6.688H126.652V5.08ZM131.452 2.32H133.444V5.68H131.452V2.32ZM137.5 8.848H142.972V10.504H137.5V8.848ZM141.892 2.2H143.884V18.376H141.892V2.2ZM130.036 21.76H144.484V23.392H130.036V21.76ZM130.036 16.936H132.028V22.648H130.036V16.936Z"
        fill="black" />
</svg>
    